<svg xmlns="http://www.w3.org/2000/svg" viewBox="0 0 1200 630">
  <defs>
    <linearGradient id="bgGrad" x1="0%" y1="0%" x2="100%" y2="100%">
      <stop offset="0%" style="stop-color:#1e40af"/>
      <stop offset="100%" style="stop-color:#2563eb"/>
    </linearGradient>
    <linearGradient id="iconGrad" x1="0%" y1="0%" x2="100%" y2="100%">
      <stop offset="0%" style="stop-color:#60a5fa"/>
      <stop offset="100%" style="stop-color:#3b82f6"/>
    </linearGradient>
  </defs>

  <!-- Background -->
  <rect width="1200" height="630" fill="url(#bgGrad)"/>

  <!-- Decorative grid pattern -->
  <g opacity="0.1">
    <line x1="0" y1="100" x2="1200" y2="100" stroke="white" stroke-width="1"/>
    <line x1="0" y1="200" x2="1200" y2="200" stroke="white" stroke-width="1"/>
    <line x1="0" y1="430" x2="1200" y2="430" stroke="white" stroke-width="1"/>
    <line x1="0" y1="530" x2="1200" y2="530" stroke="white" stroke-width="1"/>
    <line x1="100" y1="0" x2="100" y2="630" stroke="white" stroke-width="1"/>
    <line x1="300" y1="0" x2="300" y2="630" stroke="white" stroke-width="1"/>
    <line x1="900" y1="0" x2="900" y2="630" stroke="white" stroke-width="1"/>
    <line x1="1100" y1="0" x2="1100" y2="630" stroke="white" stroke-width="1"/>
  </g>

  <!-- Logo icon (larger version of favicon) -->
  <g transform="translate(100, 215)">
    <rect x="0" y="0" width="200" height="200" rx="40" fill="white"/>
    <g transform="translate(25, 25)">
      <rect x="0" y="0" width="150" height="150" rx="30" fill="url(#iconGrad)"/>
      <path d="M35 30h45c25 0 45 20 45 45s-20 45-45 45H35V30z" fill="none" stroke="white" stroke-width="12" stroke-linecap="round" stroke-linejoin="round"/>
      <circle cx="55" cy="55" r="8" fill="white"/>
      <circle cx="55" cy="95" r="8" fill="white"/>
      <circle cx="80" cy="75" r="8" fill="white"/>
    </g>
  </g>

  <!-- Text content -->
  <text x="350" y="280" font-family="system-ui, -apple-system, sans-serif" font-size="72" font-weight="700" fill="white">DataToolkit</text>
  <text x="350" y="350" font-family="system-ui, -apple-system, sans-serif" font-size="32" fill="rgba(255,255,255,0.9)">Convert JSON, CSV, and Excel files instantly</text>

  <!-- Feature badges -->
  <g transform="translate(350, 400)">
    <rect x="0" y="0" width="140" height="44" rx="22" fill="rgba(255,255,255,0.2)"/>
    <text x="70" y="28" font-family="system-ui, sans-serif" font-size="18" fill="white" text-anchor="middle">Free Tool</text>

    <rect x="160" y="0" width="160" height="44" rx="22" fill="rgba(255,255,255,0.2)"/>
    <text x="240" y="28" font-family="system-ui, sans-serif" font-size="18" fill="white" text-anchor="middle">No Signup</text>

    <rect x="340" y="0" width="180" height="44" rx="22" fill="rgba(255,255,255,0.2)"/>
    <text x="430" y="28" font-family="system-ui, sans-serif" font-size="18" fill="white" text-anchor="middle">Live Preview</text>
  </g>

  <!-- URL at bottom -->
  <text x="600" y="580" font-family="system-ui, sans-serif" font-size="24" fill="rgba(255,255,255,0.7)" text-anchor="middle">www.datatoolkit.pro</text>
</svg>
